<svg height="512pt" viewBox="-22 0 512 512" width="512pt" xmlns="http://www.w3.org/2000/svg"><path d="m301.292969 0h-287.820313c-7.441406 0-13.472656 6.03125-13.472656 13.472656v449.265625c0 7.441407 6.03125 13.472657 13.472656 13.472657h287.820313c7.441406 0 13.476562-6.03125 13.476562-13.472657v-449.265625c0-7.441406-6.035156-13.472656-13.476562-13.472656zm0 0" fill="#e9e9ea"/><path d="m301.292969 0h-25.753907c7.441407 0 13.472657 6.03125 13.472657 13.472656v449.265625c0 7.441407-6.03125 13.472657-13.472657 13.472657h25.753907c7.441406 0 13.476562-6.03125 13.476562-13.472657v-449.265625c0-7.441406-6.035156-13.472656-13.476562-13.472656zm0 0" fill="#c5c4cc"/><path d="m26.28125 476.210938v33.730468c0 1.136719.921875 2.058594 2.058594 2.058594h25.601562c1.140625 0 2.0625-.921875 2.0625-2.058594v-5.464844c0-1.136718.921875-2.058593 2.058594-2.058593h198.640625c1.140625 0 2.0625.921875 2.0625 2.058593v5.464844c0 1.136719.921875 2.058594 2.058594 2.058594h25.601562c1.140625 0 2.0625-.921875 2.0625-2.058594v-33.730468zm0 0" fill="#575b7a"/><path d="m0 146.078125v43.988281h61.546875c1.09375 0 2.140625-.433594 2.914063-1.207031l18.53125-18.53125c.773437-.773437 1.824218-1.207031 2.914062-1.207031h228.863281v-23.042969zm0 0" fill="#575b7a"/><path d="m289.011719 146.078125h25.757812v23.042969h-25.757812zm0 0" fill="#252d4c"/><path d="m44.90625 121.121094c-4.144531 0-7.5-3.355469-7.5-7.5v-43.820313c0-4.144531 3.355469-7.5 7.5-7.5 4.140625 0 7.5 3.355469 7.5 7.5v43.820313c0 4.144531-3.359375 7.5-7.5 7.5zm0 0" fill="#575b7a"/><path d="m44.90625 268.980469c-4.144531 0-7.5-3.359375-7.5-7.5v-43.824219c0-4.140625 3.355469-7.5 7.5-7.5 4.140625 0 7.5 3.359375 7.5 7.5v43.824219c0 4.140625-3.359375 7.5-7.5 7.5zm0 0" fill="#575b7a"/><path d="m450.347656 297.261719h-310.878906c-10.039062 0-18.179688 8.140625-18.179688 18.179687v178.378906c0 10.039063 8.140626 18.179688 18.179688 18.179688h310.878906c10.039063 0 18.179688-8.140625 18.179688-18.179688v-178.378906c0-10.039062-8.140625-18.179687-18.179688-18.179687zm0 0" fill="#575b7a"/><path d="m450.347656 297.261719h-27.09375c10.039063 0 18.179688 8.140625 18.179688 18.179687v178.378906c0 10.039063-8.140625 18.179688-18.179688 18.179688h27.09375c10.039063 0 18.179688-8.140625 18.179688-18.179688v-178.378906c0-10.039062-8.140625-18.179687-18.179688-18.179687zm0 0" fill="#252d4c"/><path d="m366.410156 297.261719h-226.941406c-10.039062 0-18.179688 8.140625-18.179688 18.179687v178.378906c0 10.039063 8.140626 18.179688 18.179688 18.179688h226.945312v-214.738281zm0 0" fill="#5692d8"/><path d="m143.859375 485.308594v-161.355469c0-2.277344 1.84375-4.121094 4.121094-4.121094h191.738281c2.277344 0 4.121094 1.84375 4.121094 4.121094v161.355469c0 2.273437-1.84375 4.121094-4.121094 4.121094h-191.738281c-2.277344 0-4.121094-1.847657-4.121094-4.121094zm0 0" fill="#c8e7f7"/><path d="m435.25 366.445312c0 9.820313-7.960938 17.78125-17.78125 17.78125s-17.78125-7.960937-17.78125-17.78125c0-9.820312 7.960938-17.78125 17.78125-17.78125s17.78125 7.960938 17.78125 17.78125zm0 0" fill="#aed559"/><g fill="#e9e9ea"><path d="m404.894531 428.308594h-7.621093c-4.140626 0-7.5-3.359375-7.5-7.5 0-4.144532 3.359374-7.5 7.5-7.5h7.621093c4.144531 0 7.5 3.355468 7.5 7.5 0 4.140625-3.355469 7.5-7.5 7.5zm0 0"/><path d="m437.664062 428.308594h-7.621093c-4.140625 0-7.5-3.359375-7.5-7.5 0-4.144532 3.359375-7.5 7.5-7.5h7.621093c4.144532 0 7.5 3.355468 7.5 7.5 0 4.140625-3.355468 7.5-7.5 7.5zm0 0"/><path d="m404.894531 457.773438h-7.621093c-4.140626 0-7.5-3.359376-7.5-7.5 0-4.144532 3.359374-7.5 7.5-7.5h7.621093c4.144531 0 7.5 3.355468 7.5 7.5 0 4.140624-3.355469 7.5-7.5 7.5zm0 0"/><path d="m437.664062 457.773438h-7.621093c-4.140625 0-7.5-3.359376-7.5-7.5 0-4.144532 3.359375-7.5 7.5-7.5h7.621093c4.144532 0 7.5 3.355468 7.5 7.5 0 4.140624-3.355468 7.5-7.5 7.5zm0 0"/></g></svg>