<?xml version="1.0" encoding="iso-8859-1"?>
<!-- Generator: Adobe Illustrator 19.0.0, SVG Export Plug-In . SVG Version: 6.00 Build 0)  -->
<svg version="1.1" id="Layer_1" xmlns="http://www.w3.org/2000/svg" xmlns:xlink="http://www.w3.org/1999/xlink" x="0px" y="0px"
	 viewBox="0 0 473.935 473.935" style="enable-background:new 0 0 473.935 473.935;" xml:space="preserve">
<circle style="fill:#49A0AE;" cx="236.967" cy="236.967" r="236.967"/>
<path style="fill:#ABD9DF;" d="M370.089,181.166H103.823c-2.978,0-5.396,2.417-5.396,5.392v180.93c0,2.975,2.417,5.392,5.396,5.392
	h266.266c2.978,0,5.396-2.417,5.396-5.392V186.562C375.485,183.587,373.064,181.166,370.089,181.166z"/>
<path style="fill:#357180;" d="M393.98,189.914c-0.157-1.616-1.066-3.027-2.354-3.906l-67.79-57.399v-39.76
	c0-2.982-2.417-5.392-5.396-5.392h-25.598c-2.982,0-5.396,2.413-5.396,5.392v8.954l-50.9-43.098c-2.058-1.74-5.07-1.703-7.079,0.094
	L82.05,186.18c-0.21,0.168-0.404,0.344-0.584,0.535c-1.224,1.212-1.759,2.93-1.5,4.602v12.767c0,2.978,2.417,5.399,5.396,5.399
	h303.249c2.982,0,5.399-2.421,5.399-5.399V190.91C394.029,190.58,394.025,190.244,393.98,189.914z"/>
<path style="fill:#575757;" d="M306.112,295.631c-0.685-0.015-1.336-0.393-1.654-1.051c-6.773-13.815-13.8-21.092-20.501-20.857
	c-10.013,0.269-16.995,16.408-17.07,16.576c-0.397,0.95-1.489,1.399-2.447,0.984c-0.954-0.4-1.396-1.5-0.992-2.447
	c0.318-0.752,8.022-18.518,20.408-18.851c8.311-0.183,16.393,7.502,23.955,22.956c0.453,0.928,0.075,2.047-0.857,2.5
	C306.684,295.575,306.396,295.631,306.112,295.631z"/>
<path style="fill:#C0B8AA;" d="M292.088,261.147c-4.969-4.965-64.127-7.338-74.319,2.862L117.657,364.121
	c-10.196,10.193-9.575,21.201,0.617,31.394l40,40c10.204,10.204,20.58,10.189,30.776,0l100.112-100.115
	C299.347,325.203,297.049,266.112,292.088,261.147z M257.877,297.966c-3.97-3.97-3.97-10.391,0-14.361
	c3.966-3.966,10.395-3.97,14.361,0.004c3.966,3.966,3.966,10.38,0,14.357C268.271,301.936,261.843,301.936,257.877,297.966z"/>
<radialGradient id="SVGID_1_" cx="4.2618" cy="498.7219" r="24.2627" gradientTransform="matrix(3.7418 0 0 -3.7418 186.5668 2214.0767)" gradientUnits="userSpaceOnUse">
	<stop  offset="0" style="stop-color:#E8E2D3"/>
	<stop  offset="1" style="stop-color:#DCD8CD"/>
</radialGradient>
<path style="fill:url(#SVGID_1_);" d="M289.584,260.896c-3.966-3.959-62.132-6.952-72.082,3.005l-98.315,98.312
	c-9.946,9.949-9.949,20.082,0.004,30.032l39.038,39.042c9.957,9.957,20.093,9.949,30.039,0l98.308-98.304
	C296.533,323.017,293.547,264.862,289.584,260.896z M256.047,296.439c-3.873-3.873-3.873-10.148-0.007-14.017
	c3.873-3.873,10.155-3.869,14.024,0.004c3.869,3.865,3.869,10.144-0.004,14.017C266.191,300.308,259.912,300.305,256.047,296.439z"
	/>
<radialGradient id="SVGID_2_" cx="7.4595" cy="498.2357" r="22.4616" gradientTransform="matrix(3.7418 0 0 -3.7418 186.5668 2214.0767)" gradientUnits="userSpaceOnUse">
	<stop  offset="0" style="stop-color:#E8E2D3"/>
	<stop  offset="1" style="stop-color:#DCD8CD"/>
</radialGradient>
<path style="fill:url(#SVGID_2_);" d="M266.251,280.088c1.388,0.471,2.705,1.224,3.817,2.339c3.869,3.865,3.869,10.144-0.004,14.017
	c-3.869,3.865-10.148,3.862-14.013-0.004c-1.257-1.254-2.062-2.773-2.503-4.37c-45.519,43.405-117.889,116.65-117.889,116.65
	l22.57,22.567c9.957,9.957,20.093,9.949,30.039,0l98.308-98.304c9.957-9.961,6.967-68.116,3.008-72.086
	C288.645,259.949,279.568,267.702,266.251,280.088z"/>
<path style="fill:#F3F0ED;" d="M263.171,275.485c-7.697,0.004-13.942,6.241-13.942,13.946c0,7.697,6.245,13.942,13.942,13.942
	c7.704,0,13.934-6.245,13.934-13.942C277.102,281.73,270.872,275.485,263.171,275.485z M263.171,299.328
	c-5.467,0-9.901-4.434-9.901-9.901c0-5.474,4.434-9.901,9.901-9.901c5.467,0,9.897,4.43,9.897,9.897
	C273.068,294.89,268.638,299.324,263.171,299.328z"/>
<path style="fill:#575757;" d="M377.483,209.488h-1.998v3.787c4.965,9.201,15.151,34.151,4.543,52.83
	c-1.253,2.2-2.818,4.217-4.543,6.133c-16.172,17.927-53.077,23.188-110.068,15.547c-1.033-0.202-1.968,0.58-2.103,1.605
	c-0.138,1.022,0.58,1.964,1.605,2.103c17.036,2.286,32.333,3.427,45.886,3.427c30.481-0.004,52.074-5.796,64.681-17.287
	c4.64-4.228,8.101-9.209,10.282-14.99C393.726,241.559,381.995,216.998,377.483,209.488z"/>
<path style="fill:#74726A;" d="M204.283,317.872c3.087,3.083,1.785,8.767,1.306,8.703c-5.62-0.415-12.34,1.785-16.864,6.305
	c-4.591,4.595-5.34,9.459-2.256,12.542c3.562,3.562,8.292,0.748,14.731-3.364c7.678-4.924,18.507-10.679,27.487-1.703
	c6.922,6.922,6.922,16.513,0.135,25.77l2.672,2.668c3.154,3.158,3.427,5.897,0.688,8.64l-0.341,0.344
	c-2.877,2.877-5.354,2.462-8.572-0.748l-2.533-2.541c-9.186,7.405-17.684,8.359-21.523,4.524c-2.945-2.949-1.781-8.363-1.231-8.359
	c5.759,0.543,13.429-1.92,18.78-7.27c4.868-4.864,5.62-9.732,2.541-12.812c-3.775-3.768-9.051-0.546-15.218,3.289
	c-7.33,4.73-17.687,10.279-26.728,1.239c-6.578-6.589-6.645-15.974-0.617-24.744l-2.537-2.541c-3.151-3.151-3.499-5.826-0.756-8.565
	l0.415-0.408c2.803-2.806,5.347-2.466,8.565,0.752l2.331,2.331C193.181,315.133,200.788,314.381,204.283,317.872z"/>
<g>
</g>
<g>
</g>
<g>
</g>
<g>
</g>
<g>
</g>
<g>
</g>
<g>
</g>
<g>
</g>
<g>
</g>
<g>
</g>
<g>
</g>
<g>
</g>
<g>
</g>
<g>
</g>
<g>
</g>
</svg>
